<svg xmlns="http://www.w3.org/2000/svg" width="24" height="22" viewBox="0 0 24 22"><g><g><g><path fill="#5333bf" d="M9.185 17.213H3.739a.54.54 0 1 0 0 1.078h5.446a.54.54 0 1 0 0-1.078z"/></g><g><path fill="#5333bf" d="M17.327 17.213H11.88a.54.54 0 1 0 0 1.078h5.446a.54.54 0 0 0 0-1.078z"/></g><g><path fill="#5333bf" d="M17.327 3.734H3.739a.54.54 0 1 0 0 1.078h13.588a.54.54 0 0 0 0-1.078z"/></g><g><path fill="#5333bf" d="M17.327 6.43H11.88a.54.54 0 1 0 0 1.078h5.446a.54.54 0 1 0 0-1.078z"/></g><g><path fill="#5333bf" d="M17.327 9.125H11.88a.54.54 0 1 0 0 1.079h5.446a.54.54 0 0 0 0-1.079z"/></g><g><path fill="#5333bf" d="M17.327 11.821H11.88a.54.54 0 1 0 0 1.079h5.446a.54.54 0 0 0 0-1.079z"/></g><g><path fill="#5333bf" d="M17.327 14.517H11.88a.54.54 0 1 0 0 1.079h5.446a.54.54 0 0 0 0-1.079z"/></g><g><path fill="#5333bf" d="M9.185 14.517H3.739a.54.54 0 1 0 0 1.079h5.446a.54.54 0 1 0 0-1.079z"/></g><g><path fill="#5333bf" d="M8.646 11.875H4.278V7.508h4.368zm.539-5.445H3.739a.54.54 0 0 0-.539.539v5.445c0 .298.242.54.54.54h5.445a.54.54 0 0 0 .54-.54V6.97a.54.54 0 0 0-.54-.54z"/></g><g><path fill="#5333bf" d="M22.718 18.83a1.62 1.62 0 0 1-1.617 1.618H2.66a1.62 1.62 0 0 1-1.618-1.617V1.577h18.98v16.445a1.35 1.35 0 0 0 1.347 1.348.54.54 0 0 0 0-1.079.27.27 0 0 1-.27-.27V4.274h1.618zM21.101 3.195V1.577A1.08 1.08 0 0 0 20.022.499H1.043A1.08 1.08 0 0 0-.035 1.577v17.254a2.699 2.699 0 0 0 2.696 2.695H21.1a2.699 2.699 0 0 0 2.696-2.695V4.273a1.08 1.08 0 0 0-1.079-1.079z"/></g></g></g></svg>