<svg xmlns="http://www.w3.org/2000/svg" width="30" height="27" viewBox="0 0 30 27"><g><g><path fill="#5333bf" d="M26.185 15.018H8.931L7.054 5.006h21.217zm-1.99 10.012a1.67 1.67 0 0 1-1.668-1.669c0-.92.748-1.669 1.668-1.669.92 0 1.669.749 1.669 1.669a1.67 1.67 0 0 1-1.669 1.669zm-11.68-1.669a1.67 1.67 0 0 1-1.669 1.669 1.67 1.67 0 0 1-1.668-1.669c0-.92.748-1.669 1.668-1.669.92 0 1.669.749 1.669 1.669zM28.784 3.337H6.74l-.434-2.316A1.252 1.252 0 0 0 5.077 0H.626A.626.626 0 0 0 0 .626v.417c0 .345.28.626.626.626H4.73l3.646 19.447a3.337 3.337 0 1 0 5.359.576h7.57a3.337 3.337 0 1 0 5.216-.723 1.252 1.252 0 0 0-1.215-.945H9.87l-.626-3.338h17.28c.593 0 1.104-.415 1.225-.996l2.26-10.846a1.252 1.252 0 0 0-1.225-1.507z"/></g></g></svg>