<svg xmlns="http://www.w3.org/2000/svg" width="35" height="35" viewBox="0 0 35 35"><g><g><path fill="#5333bf" d="M2.049 2.049h5.283v5.283H2.05zM.029 9.352h9.323V.03H.03z"/></g><g><path fill="#5333bf" d="M32.471 7.332h-5.283V2.05h5.283zM25.17.03v9.322h9.321V.03z"/></g><g><path fill="#5333bf" d="M14.618 2.049h5.284v5.283h-5.284zM12.6 9.352h9.322V.03h-9.322z"/></g><g><path fill="#5333bf" d="M2.049 14.618h5.283v5.284H2.05zm-2.02 7.303h9.323v-9.322H.03z"/></g><g><path fill="#5333bf" d="M27.188 14.618h5.283v5.284h-5.283zm-2.02 7.303h9.322v-9.322H25.17z"/></g><g><path fill="#5333bf" d="M14.618 14.618h5.284v5.284h-5.284zM12.6 21.921h9.322v-9.322h-9.322z"/></g><g><path fill="#5333bf" d="M2.049 27.188h5.283v5.283H2.05zM.029 34.49h9.323V25.17H.03z"/></g><g><path fill="#5333bf" d="M27.188 27.188h5.283v5.283h-5.283zm-2.02 7.302h9.322V25.17H25.17z"/></g><g><path fill="#5333bf" d="M14.618 27.188h5.284v5.283h-5.284zM12.6 34.49h9.322V25.17h-9.322z"/></g></g></svg>