<svg xmlns="http://www.w3.org/2000/svg" width="22" height="29" viewBox="0 0 22 29"><g><g><g><g><path fill="#5333bf" d="M17.24 24.578l.144-.126a.272.272 0 0 0 .057-.058c.075-.086 1.75-2.02 2.388-3.507h.304c.867 0 1.573-.706 1.573-1.573V16.83c0-.867-.706-1.573-1.573-1.573h-.338c-.523-1.36-1.413-2.59-2.595-3.588-.172-.614-.046-1.269.385-1.952a1.161 1.161 0 0 0-.006-1.251 1.16 1.16 0 0 0-1.131-.534c-1.659.207-2.652.959-3.232 1.659a10.95 10.95 0 0 0-1.676-.327.568.568 0 1 0-.132 1.13c.631.075 1.257.213 1.854.403.241.074.5-.018.643-.224.39-.58 1.177-1.315 2.68-1.504.012 0 .024 0 .035.017.012.017.006.029 0 .034-.597.953-.775 1.946-.51 2.876.005.167.08.322.212.425 1.211.976 2.09 2.216 2.537 3.588.075.235.298.39.54.39h.734c.241 0 .437.195.437.436v2.486a.436.436 0 0 1-.437.436h-.694c-.247 0-.471.16-.546.402-.321 1.05-1.733 2.83-2.284 3.467l-.127.11c-1.182 1.067-1.303 2.33-1.308 2.709v.797h-3.278v-.769a.574.574 0 0 0-.631-.568c-.838.086-1.682.075-2.497-.035a.556.556 0 0 0-.448.138.563.563 0 0 0-.195.43v.799H4.847v-.224-.023c-.029-.603-.218-2.13-1.412-3.358-.563-.58-1.068-1.35-1.504-2.28-.006-.005-.006-.01-.012-.022a6.767 6.767 0 0 1-.585-1.567l-.006-.023c0-.006-.006-.012-.006-.017-.206-.69-.183-1.556-.183-1.562v-.017c0-.379.034-.763.092-1.136a.567.567 0 1 0-1.12-.19c-.074.43-.109.873-.109 1.315-.006.114-.017 1.079.23 1.911.149.614.379 1.217.671 1.791.483 1.045 1.062 1.912 1.711 2.583.913.942 1.068 2.124 1.09 2.606v.236c0 .023 0 .04.006.074a1.12 1.12 0 0 0 1.108 1.04h3.324c.614 0 1.113-.5 1.113-1.114v-.19c.5.04.994.046 1.499.023v.167c0 .614.5 1.113 1.113 1.113h3.324c.614 0 1.114-.5 1.114-1.113v-.81c.011-.178.074-1.096.935-1.871z"/></g><g><path fill="#5333bf" d="M8.268 11.226a3.547 3.547 0 0 1-3.542 3.542 3.547 3.547 0 0 1-3.541-3.542 3.547 3.547 0 0 1 3.541-3.542 3.547 3.547 0 0 1 3.542 3.542zm-8.22 0a4.683 4.683 0 0 0 4.678 4.678 4.683 4.683 0 0 0 4.679-4.678 4.683 4.683 0 0 0-4.679-4.678 4.683 4.683 0 0 0-4.678 4.678z"/></g><g><path fill="#5333bf" d="M7.94 3.5c0-1.171.954-2.124 2.125-2.124 1.17 0 2.124.953 2.124 2.124a2.126 2.126 0 0 1-2.124 2.124A2.126 2.126 0 0 1 7.94 3.5zm5.391 0a3.266 3.266 0 0 0-3.26-3.26A3.266 3.266 0 0 0 6.81 3.5a3.266 3.266 0 0 0 3.26 3.26 3.266 3.266 0 0 0 3.26-3.26z"/></g></g></g></g></svg>