<svg xmlns="http://www.w3.org/2000/svg" width="26" height="25" viewBox="0 0 26 25"><g><g><path fill="#ffffff" d="M23.058 12.634c0-1.794.149-5.647-.495-7.27a4.162 4.162 0 0 0-2.345-2.345c-1.618-.638-5.476-.495-7.27-.495-1.794 0-5.647-.149-7.27.495a4.162 4.162 0 0 0-2.345 2.344c-.638 1.619-.495 5.477-.495 7.27 0 1.795-.149 5.647.495 7.27a4.162 4.162 0 0 0 2.345 2.345c1.618.639 5.476.496 7.27.496 1.794 0 5.647.148 7.27-.496a4.162 4.162 0 0 0 2.345-2.344c.644-1.618.495-5.476.495-7.27zm2.135 5.085c-.099 1.976-.55 3.726-1.992 5.168-1.442 1.447-3.192 1.899-5.168 1.992-2.036.116-8.14.116-10.176 0-1.976-.099-3.72-.55-5.168-1.992C1.242 21.445.79 19.695.697 17.719.58 15.683.58 9.579.697 7.543c.099-1.976.545-3.726 1.992-5.168C4.137.933 5.887.482 7.857.388c2.036-.115 8.14-.115 10.176 0 1.976.1 3.726.55 5.168 1.993 1.447 1.441 1.899 3.192 1.992 5.167.116 2.037.116 8.135 0 10.17zM21.005 6.051c0 .82-.66 1.475-1.475 1.475a1.475 1.475 0 1 1 1.475-1.475zm-3.946 6.583a4.115 4.115 0 0 0-4.111-4.111 4.115 4.115 0 0 0-4.111 4.11 4.119 4.119 0 0 0 4.11 4.112 4.119 4.119 0 0 0 4.112-4.111zm2.212 0c0 3.5-2.823 6.323-6.323 6.323a6.314 6.314 0 0 1-6.324-6.323c0-3.5 2.824-6.324 6.324-6.324s6.323 2.823 6.323 6.324z"/></g></g></svg>