<svg xmlns="http://www.w3.org/2000/svg" width="27" height="21" viewBox="0 0 27 21"><g><g><path fill="#5333bf" d="M24.196 18.834H2.503A.837.837 0 0 1 1.67 18V7.31c1.189.975 3.066 2.482 6.815 5.46 1.07.855 2.957 2.737 4.865 2.727 1.898.015 3.77-1.852 4.866-2.728 3.749-2.977 5.626-4.484 6.815-5.46V18a.837.837 0 0 1-.834.835zm0-16.687c.458 0 .834.376.834.835V5.14c-1.142.964-2.774 2.294-7.853 6.325-.881.699-2.618 2.383-3.828 2.362-1.21.02-2.951-1.663-3.827-2.362-5.079-4.031-6.711-5.36-7.853-6.325V2.98c0-.458.375-.834.834-.834zm0-1.668H2.503A2.504 2.504 0 0 0 0 2.982V18a2.504 2.504 0 0 0 2.503 2.503h21.693A2.504 2.504 0 0 0 26.699 18V2.982A2.504 2.504 0 0 0 24.196.479z"/></g></g></svg>