<svg xmlns="http://www.w3.org/2000/svg" width="15" height="18" viewBox="0 0 15 18"><g><g><path fill="#5333bf" d="M13.2 14.157c0 .204-.147.37-.325.37H3.843a.387.387 0 0 1-.37-.37V1.652c0-.178.166-.326.37-.326h3.8v5.558H13.2zm-2.084 2.084c0 .205-.148.37-.326.37H1.76a.387.387 0 0 1-.37-.37V3.736c0-.178.166-.326.37-.326h.325v11.095c0 .96.452 1.41 1.411 1.41h7.621zM9.032 1.873l3.621 3.622H9.032zm0-1.936h-5.19c-.959 0-1.758.755-1.758 1.715v.369H1.76C.799 2.02 0 2.776 0 3.736V16.24C0 17.201.799 18 1.759 18h9.031c.96 0 1.715-.799 1.715-1.759v-.325h.37c.96 0 1.715-.8 1.715-1.759V5.495z"/></g></g></svg>