<svg xmlns="http://www.w3.org/2000/svg" width="24" height="27" viewBox="0 0 24 27"><g><g><path fill="#5333bf" d="M20.855 21.692H2.505c-.74 0-1.112-.902-.59-1.424 1.818-1.817 3.091-3.851 3.091-9.422a6.671 6.671 0 0 1 6.675-6.674 6.671 6.671 0 0 1 6.674 6.674c0 5.55 1.263 7.594 3.09 9.422.525.525.15 1.424-.59 1.424zm-9.174 3.338a1.67 1.67 0 0 1-1.669-1.669h3.338a1.67 1.67 0 0 1-1.67 1.669zm10.944-5.942c-1.16-1.16-2.6-2.604-2.6-8.242a8.345 8.345 0 0 0-6.97-8.23 1.669 1.669 0 1 0-2.747 0 8.345 8.345 0 0 0-6.97 8.23c0 5.638-1.442 7.082-2.602 8.242-1.572 1.572-.458 4.273 1.77 4.273h5.838a3.341 3.341 0 0 0 3.337 3.337 3.341 3.341 0 0 0 3.337-3.337h5.837c2.224 0 3.346-2.698 1.77-4.273z"/></g></g></svg>