<svg xmlns="http://www.w3.org/2000/svg" width="16" height="26" viewBox="0 0 16 26"><g><g><path fill="#0e1019" d="M4.99 6.813a3.203 3.203 0 0 0 3.199 3.198 3.206 3.206 0 0 0 0-6.411A3.206 3.206 0 0 0 4.99 6.813zm-3.313 0c0-3.6 2.927-6.511 6.512-6.511A6.517 6.517 0 0 1 14.7 6.813c0 3.585-2.927 6.497-6.511 6.497-3.585 0-6.512-2.912-6.512-6.497zm12.29 10.257c-1.375.874-3.268 1.22-4.518 1.35l1.05 1.035 3.83 3.83c1.4 1.436-.879 3.68-2.295 2.295-.959-.974-2.364-2.38-3.83-3.846l-3.83 3.84c-1.417 1.382-3.696-.883-2.28-2.293.974-.974 2.364-2.38 3.83-3.831l1.035-1.034c-1.235-.13-3.158-.457-4.549-1.35C.773 16.01.055 15.392.688 14.102c.372-.733 1.39-1.35 2.741-.286 0 0 1.823 1.45 4.765 1.45 2.942 0 4.764-1.45 4.764-1.45 1.35-1.06 2.365-.447 2.741.286.623 1.29-.095 1.908-1.732 2.967z"/></g></g></svg>