<svg xmlns="http://www.w3.org/2000/svg" width="30" height="27" viewBox="0 0 30 27"><g><g><path fill="#5333bf" d="M26.698 21.192c-1.908-1.518-3.895-2.785-5.928-3.765-2.467-1.194-4.954-1.95-7.42-2.253V8.187c2.466-.308 4.953-1.059 7.42-2.253a32.116 32.116 0 0 0 5.928-3.765zm-25.03-7.009V9.178c0-.46.376-.835.835-.835h9.178v6.675H2.503a.837.837 0 0 1-.834-.835zm9.476 9.308zm-4.662.605c-.72-2.32-1.716-4.651-1.424-7.41h3.843c-.433 1.002-.396 2.196.277 2.92-1.038 1.81.417 2.92 1.966 3.885-.908 1.914-3.312 1.95-4.662.605zM28.367 1.67C28.367.746 27.621 0 26.698 0c-3.389 2.92-9.073 6.675-15.852 6.675H2.503A2.504 2.504 0 0 0 0 9.178v5.005a2.504 2.504 0 0 0 2.503 2.503h.876c-.276 3.056.782 5.58 1.507 7.906.078.26.224.495.417.688a4.852 4.852 0 0 0 3.405 1.418c1.659 0 3.176-.886 3.937-2.487.365-.767.1-1.684-.62-2.133-1.455-.907-1.669-1.173-1.398-1.642a1.678 1.678 0 0 0-.219-1.961c-.276-.302-.068-1.429.574-1.789 6.721.047 12.353 3.776 15.722 6.675.923 0 1.668-.746 1.668-1.669V13.35c.923 0 1.669-.746 1.669-1.668 0-.923-.75-1.67-1.674-1.67z"/></g></g></svg>