<svg xmlns="http://www.w3.org/2000/svg" width="26" height="26" viewBox="0 0 26 26"><g><g><g><path fill="#5333bf" d="M8.957 10.87a.485.485 0 1 0-.685-.687.485.485 0 0 0 .685.686z"/></g><g><path fill="#5333bf" d="M12.387 10.183a.485.485 0 1 1 .686.687.485.485 0 0 1-.686-.687zm1.372 1.372a1.455 1.455 0 1 0-2.058-2.06 1.455 1.455 0 0 0 2.058 2.06z"/></g><g><path fill="#5333bf" d="M13.073 16.358a.485.485 0 1 1-.686-.687.485.485 0 0 1 .686.687zm-1.372-1.373a1.455 1.455 0 1 0 2.056 2.058 1.455 1.455 0 0 0-2.056-2.058z"/></g><g><path fill="#5333bf" d="M8.824 14.051a.485.485 0 0 0 .57.38l6.86-1.371a.485.485 0 0 0-.19-.952l-6.86 1.373a.485.485 0 0 0-.38.57z"/></g><g><path fill="#5333bf" d="M15.079 3.576a.485.485 0 0 0-.343.142L9.643 8.81a.485.485 0 0 0 .686.686l4.75-4.75 6.174 6.174-10.89 10.89-6.175-6.173 3.397-3.397a.485.485 0 1 0-.686-.686l-3.74 3.74a.485.485 0 0 0 0 .686l6.86 6.86c.19.19.497.19.686 0l11.577-11.577a.485.485 0 0 0 0-.686l-6.86-6.86a.485.485 0 0 0-.343-.142z"/></g><g><path fill="#5333bf" d="M20.567 5.433a.485.485 0 1 1-.686.686.485.485 0 0 1 .686-.686zm1.407 2.093a.486.486 0 0 0 .005.69l2.079 2.021a.484.484 0 0 1-.002.683L10.362 24.556a.486.486 0 0 1-.686 0l-2.151-2.152a.485.485 0 0 0-.55-.096 2.47 2.47 0 0 1-2.787-.496 2.47 2.47 0 0 1-.496-2.788.485.485 0 0 0-.096-.549l-2.152-2.151a.486.486 0 0 1 0-.687L15.08 1.944a.485.485 0 0 1 .684-.002l2.02 2.079a.485.485 0 0 0 .691.005c.83-.83 2.13-.92 3.089-.275l-.712.712a1.458 1.458 0 0 0-1.656.284 1.455 1.455 0 1 0 2.343.401l.711-.711c.64.946.566 2.248-.275 3.089zm.284-4.47c-1.215-.918-2.892-.933-4.097-.038l-1.705-1.755-.005-.005a1.454 1.454 0 0 0-2.059 0L.758 14.953a1.455 1.455 0 0 0 0 2.058l1.924 1.924a3.447 3.447 0 0 0 4.384 4.384l1.924 1.924c.569.569 1.49.568 2.058 0l13.694-13.635a1.454 1.454 0 0 0 0-2.058l-.005-.005-1.755-1.705c.891-1.196.888-2.874-.038-4.097l2.082-2.082a.485.485 0 0 0-.686-.686z"/></g></g></g></svg>