<svg xmlns="http://www.w3.org/2000/svg" width="28" height="23" viewBox="0 0 28 23"><g><g><path fill="#0e1019" d="M24.893 6.07c.018.245.018.492.018.738 0 7.507-5.714 16.158-16.158 16.158-3.218 0-6.207-.932-8.721-2.55.457.053.896.07 1.371.07 2.655 0 5.099-.896 7.05-2.425a5.69 5.69 0 0 1-5.31-3.939c.352.053.704.088 1.073.088.51 0 1.02-.07 1.495-.193a5.68 5.68 0 0 1-4.554-5.574v-.07a5.72 5.72 0 0 0 2.567.72 5.675 5.675 0 0 1-2.532-4.73c0-1.054.281-2.021.774-2.865a16.143 16.143 0 0 0 11.71 5.943 6.411 6.411 0 0 1-.141-1.301c0-3.13 2.532-5.68 5.68-5.68 1.634 0 3.111.686 4.149 1.794A11.181 11.181 0 0 0 26.968.882a5.664 5.664 0 0 1-2.497 3.13c1.143-.123 2.25-.44 3.27-.879a12.208 12.208 0 0 1-2.848 2.936z"/></g></g></svg>