<svg xmlns="http://www.w3.org/2000/svg" width="30" height="17" viewBox="0 0 30 17"><g><g><path fill="#ffffff" d="M25.254 11.062c.973.95 2 1.844 2.873 2.89.386.465.751.945 1.03 1.484.396.767.038 1.611-.65 1.657l-4.275-.002c-1.102.092-1.982-.352-2.721-1.106-.592-.603-1.14-1.244-1.71-1.868a4.047 4.047 0 0 0-.769-.683c-.583-.38-1.09-.263-1.423.345-.34.62-.417 1.305-.45 1.995-.046 1.006-.35 1.271-1.361 1.317-2.161.102-4.212-.225-6.117-1.315-1.68-.961-2.982-2.318-4.116-3.854C3.358 8.932 1.667 5.646.148 2.267c-.342-.76-.092-1.17.748-1.184 1.395-.027 2.789-.025 4.185-.002.567.008.942.333 1.161.869.755 1.855 1.678 3.62 2.837 5.256.308.436.623.871 1.07 1.178.497.34.874.227 1.107-.325.148-.35.213-.728.246-1.103.11-1.29.125-2.578-.068-3.864-.12-.802-.571-1.321-1.372-1.473-.408-.078-.348-.23-.15-.463.344-.402.667-.653 1.311-.653h4.831c.76.15.93.492 1.034 1.257l.004 5.367c-.008.296.148 1.175.682 1.371.427.14.708-.202.964-.473 1.157-1.227 1.983-2.678 2.72-4.18.328-.661.609-1.347.882-2.032.202-.51.519-.76 1.092-.748l4.65.004c.137 0 .277.002.41.025.784.133.999.47.757 1.235-.382 1.2-1.124 2.201-1.849 3.206-.775 1.073-1.605 2.11-2.374 3.188-.706.986-.65 1.483.228 2.339z"/></g></g></svg>